# xmcd
#
# Track frame offsets:
#	182
#	10077
#	28307
#	45190
#	61282
#	85562
#	112452
#	134250
#	149140
#	157210
#	175727
#	185747
#
# Disc length: 2688 seconds
#
# Revision: 0
# Processed by: cddbd v1.4PL0 Copyright (c) Steve Scherf et al.
# Submitted via: EasyCDDAExtractor 5.0.4.1
#
DISCID=ab0a7e0c
DTITLE=Manal - Cronología
DYEAR=1968
DGENRE=blues
TTITLE0=Doña Laura
TTITLE1=Elena (vas mal asi)
TTITLE2=No hay tiempo de mas
TTITLE3=Blues de la amenaza nocturna
TTITLE4=Soy del sol
TTITLE5=Paula (quiero ver donde estás)
TTITLE6=Si no hablo de mi
TTITLE7=Hoy todo anda bien
TTITLE8=(te quiero) Mujer sin nombre
TTITLE9=El León (dedspierta un león)
TTITLE10=Vamos a la vida
TTITLE11=Libre como ayer
EXTD=
EXTT0=
EXTT1=
EXTT2=
EXTT3=
EXTT4=
EXTT5=
EXTT6=
EXTT7=
EXTT8=
EXTT9=
EXTT10=
EXTT11=
PLAYORDER=
